<?xml version="1.0" encoding="iso-8859-1"?>
<!-- Generator: Adobe Illustrator 19.0.0, SVG Export Plug-In . SVG Version: 6.00 Build 0)  -->
<svg version="1.1" id="Layer_1" xmlns="http://www.w3.org/2000/svg" xmlns:xlink="http://www.w3.org/1999/xlink" x="0px" y="0px"
	 viewBox="0 0 140.866 140.866" style="enable-background:new 0 0 140.866 140.866;" xml:space="preserve">
<g>
	<g>
		<rect x="50.403" y="23.995" style="fill:#FFFEF7;" width="40.059" height="92.787"/>
		<path style="fill:#A2D7E3;" d="M91.086,117.407H49.779V23.371h41.307V117.407z M51.027,116.158h38.811V24.619H51.027V116.158z"/>
	</g>
	<g>
		<polygon style="fill:#FFFFFF;" points="85.333,116.782 85.333,99.148 66.146,116.782 		"/>
	</g>
	<g>
		<polygon style="fill:#E94C5B;" points="55.533,116.782 66.146,116.782 85.333,99.148 85.333,78.872 55.533,106.26 		"/>
	</g>
	<g>
		<polygon style="fill:#FFFFFF;" points="55.533,106.26 85.333,78.872 85.333,58.595 55.533,85.982 		"/>
	</g>
	<g>
		<polygon style="fill:#A2D7E3;" points="55.533,65.706 55.533,85.982 85.333,58.595 85.333,38.316 		"/>
	</g>
	<g>
		<polygon style="fill:#E94C5B;" points="55.533,23.995 55.533,45.428 78.854,23.995 		"/>
	</g>
	<g>
		<polygon style="fill:#FFFFFF;" points="85.333,23.995 78.854,23.995 55.533,45.428 55.533,65.706 85.333,38.316 		"/>
	</g>
	<g>
		<g>
			<path style="fill:#A2D7E3;" d="M90.551,122.376c0,10.211-9.006,18.49-20.117,18.49c-11.112,0-20.119-8.279-20.119-18.49H90.551z"
				/>
		</g>
		<g>
			<path style="fill:#A2D7E3;" d="M90.462,116.341H50.403c-1.813,0-3.284,1.35-3.284,3.018l0,0c0,1.666,1.471,3.018,3.284,3.018
				h40.059c1.814,0,3.285-1.352,3.285-3.018l0,0C93.747,117.69,92.276,116.341,90.462,116.341z"/>
		</g>
	</g>
	<g>
		<g>
			<path style="fill:#A2D7E3;" d="M90.551,18.49C90.551,8.278,81.545,0,70.434,0c-11.113,0-20.12,8.278-20.12,18.49H90.551z"/>
		</g>
		<g>
			<path style="fill:#A2D7E3;" d="M90.462,24.526H50.403c-1.813,0-3.284-1.351-3.284-3.018l0,0c0-1.667,1.471-3.019,3.284-3.019
				h40.059c1.814,0,3.285,1.352,3.285,3.019l0,0C93.747,23.176,92.276,24.526,90.462,24.526z"/>
		</g>
	</g>
</g>
<g>
</g>
<g>
</g>
<g>
</g>
<g>
</g>
<g>
</g>
<g>
</g>
<g>
</g>
<g>
</g>
<g>
</g>
<g>
</g>
<g>
</g>
<g>
</g>
<g>
</g>
<g>
</g>
<g>
</g>
</svg>
